<?xml version="1.0" encoding="UTF-8" standalone="no"?>
<svg
   xmlns:dc="http://purl.org/dc/elements/1.1/"
   xmlns:cc="http://creativecommons.org/ns#"
   xmlns:rdf="http://www.w3.org/1999/02/22-rdf-syntax-ns#"
   xmlns:svg="http://www.w3.org/2000/svg"
   xmlns="http://www.w3.org/2000/svg"
   version="1.1"
   id="svg32935"
   viewBox="0 0 905.71024 652.41731"
   height="184.12666mm"
   width="255.61156mm">
  <defs
     id="defs32937" />
  <metadata
     id="metadata32940">
    <rdf:RDF>
      <cc:Work
         rdf:about="">
        <dc:format>image/svg+xml</dc:format>
        <dc:type
           rdf:resource="http://purl.org/dc/dcmitype/StillImage" />
        <dc:title></dc:title>
      </cc:Work>
    </rdf:RDF>
  </metadata>
  <g
     transform="translate(-526.69354,-452.46595)"
     id="layer1">
    <path
       id="path33494"
       d="m 699.58339,1101.0242 c -36.99272,-12.9818 -59.59197,-46.1036 -59.46164,-87.1478 0.0857,-26.98051 7.11943,-46.08053 23.23096,-63.08347 32.87648,-34.69538 82.00379,-36.96768 116.9403,-5.40884 46.71953,42.20265 37.44732,120.14881 -17.86993,150.22201 -16.03016,8.7148 -46.06587,11.3045 -62.83969,5.4181 z m 54.96019,-58.7961 c 16.9675,-20.0405 10.13754,-55.89152 -12.55409,-65.89723 -15.45399,-6.81434 -24.62872,-6.29532 -37.7302,2.1343 -20.78138,13.37104 -25.2884,41.29593 -9.97994,61.83423 9.27639,12.4455 18.12752,15.963 36.00502,14.3086 11.57208,-1.0709 17.05199,-3.8673 24.25921,-12.3799 z m 425.87522,55.1584 c -18.6498,-9.3777 -36.6983,-28.9843 -44.3058,-48.1306 -6.8019,-17.1188 -6.5621,-51.65525 0.48,-69.11562 7.384,-18.30836 26.9402,-39.72197 43.8501,-48.01487 20.5467,-10.07648 52.8569,-9.02551 74.6355,2.42761 52.7358,27.73326 63.1345,101.39898 20.5202,145.36738 -15.6859,16.1843 -32.0538,23.3123 -56.6756,24.6815 -17.5914,0.9782 -24.9529,-0.4013 -38.5044,-7.2154 z m 62.3042,-51.2455 c 8.4395,-7.9579 10.8382,-13.404 12.1241,-27.5274 1.3881,-15.2453 0.4181,-19.09303 -7.2316,-28.68718 -29.9468,-37.55874 -83.3057,-6.58806 -68.7638,39.91198 8.1908,26.1916 43.7566,35.2694 63.8713,16.3026 z m -698.83078,-36.2893 c -6.88001,-4.6963 -12.13626,-12.10733 -14.41024,-20.31777 -2.4126,-8.711 -3.24525,-78.59959 -2.55384,-214.3635 0.95799,-188.11151 1.43049,-202.09006 7.14178,-211.2854 12.80598,-20.61795 -1.38348,-19.85058 367.05786,-19.85058 243.39102,0 342.53102,1.13635 353.50272,4.0519 26.3535,7.00305 32.5874,17.27844 71.3679,117.63688 34.8448,90.17334 35.2377,90.96574 47.725,96.25163 24.6017,10.41396 31.8275,30.29604 47.8309,131.60971 13.3536,84.53779 13.6101,89.95599 4.9671,104.91516 -8.6141,14.90927 -24.6085,19.25187 -66.1634,17.96377 l -32.6178,-1.011 -2.3145,-17.12679 c -3.1311,-23.16947 -17.9724,-52.98131 -33.9682,-68.23205 -21.7972,-20.78195 -45.6936,-30.33514 -75.8804,-30.33514 -31.5637,0 -55.6588,10.2303 -76.9056,32.65264 -14.6094,15.4177 -30.0805,45.69362 -30.1368,58.9757 -0.017,4.24347 -1.5078,11.80974 -3.3106,16.81384 l -3.2779,9.0985 -132.78285,-0.9233 -132.78287,-0.9234 -4.32276,-22.36789 c -7.707,-39.87953 -28.547,-67.28799 -64.29441,-84.55916 -24.23839,-11.71062 -61.99965,-12.29098 -85.51348,-1.31421 -35.54078,16.59116 -55.93579,42.93375 -66.0321,85.28831 l -5.47141,22.95295 -28.01176,0.896 c -23.66129,0.7568 -29.69387,-0.2521 -38.84234,-6.4968 z m 427.60457,-82.67974 c 0.10172,-1.94217 0.0268,-21.87083 -0.16296,-44.2859 -0.1914,-22.41506 0.63947,-43.46997 1.84621,-46.78868 1.92371,-5.29054 7.92186,-6.03401 48.68146,-6.03401 l 46.4873,0 0,-49.4371 0,-49.43709 -46.4873,0 c -40.7596,0 -46.75775,-0.74347 -48.68153,-6.03401 -1.20673,-3.31872 -2.03754,-24.37362 -1.84621,-46.78869 0.1914,-22.41506 0.26468,-42.74098 0.16296,-45.16869 -0.13819,-3.3018 -11.47698,-4.41403 -44.99913,-4.41403 -37.77808,0 -45.13324,0.87701 -46.84537,5.58565 -1.11703,3.07209 -2.03098,26.11331 -2.03098,51.20271 l 0,45.61706 -46.84538,0 -46.84537,0 0,49.43709 0,49.4371 46.84537,0 46.84538,0 0,46.96525 c 0,25.83088 1.43045,48.47484 3.17879,50.3199 4.32958,4.56912 90.45718,4.40145 90.69676,-0.17656 z M 1310.7824,749.11599 c 1.953,-3.33485 -52.9983,-150.23451 -59.2443,-158.37595 -2.5999,-3.38891 -17.1448,-4.25911 -59.0222,-3.53122 l -55.5721,0.96589 -0.9038,77.60332 c -0.4972,42.68184 -0.168,79.62724 0.7314,82.1009 1.2653,3.47974 20.9245,4.49757 86.8685,4.49757 48.4949,0 86.0561,-1.40539 87.1425,-3.26051 z M 1004.773,514.01907 c 0,-7.73507 1.4499,-8.82806 11.7113,-8.82806 10.8243,0 11.7113,-0.81571 11.7113,-10.76902 0,-31.28291 32.9898,-51.76816 59.8032,-37.13531 13.3732,7.29815 18.2104,14.78286 20.3167,31.43666 1.7107,13.52504 2.7302,14.79066 12.7344,15.80861 9.0068,0.91645 10.8748,2.58453 10.8748,9.71086 l 0,8.60431 -63.5759,0 -63.5758,0 0,-8.82805 z"
       style="fill:#000000" />
  </g>
</svg>
