<?xml version="1.0" encoding="UTF-8" standalone="no"?>
<!-- Uploaded to: SVG Repo, www.svgrepo.com, Generator: SVG Repo Mixer Tools -->

<svg
   width="600.00061"
   height="566.6651"
   viewBox="0 0 18.000018 16.999953"
   fill="none"
   version="1.1"
   id="svg826"
   sodipodi:docname="phone.svg"
   inkscape:version="1.1 (c4e8f9e, 2021-05-24)"
   xmlns:inkscape="http://www.inkscape.org/namespaces/inkscape"
   xmlns:sodipodi="http://sodipodi.sourceforge.net/DTD/sodipodi-0.dtd"
   xmlns="http://www.w3.org/2000/svg"
   xmlns:svg="http://www.w3.org/2000/svg">
  <defs
     id="defs830" />
  <sodipodi:namedview
     id="namedview828"
     pagecolor="#ffffff"
     bordercolor="#666666"
     borderopacity="1.0"
     inkscape:pageshadow="2"
     inkscape:pageopacity="0.0"
     inkscape:pagecheckerboard="0"
     showgrid="false"
     inkscape:zoom="0.70625"
     inkscape:cx="266.90265"
     inkscape:cy="333.45133"
     inkscape:window-width="1312"
     inkscape:window-height="787"
     inkscape:window-x="0"
     inkscape:window-y="25"
     inkscape:window-maximized="0"
     inkscape:current-layer="svg826" />
  <path
     d="m 12.556198,10.906197 -0.4555,0.4528 c 0,0 -1.0826,1.0765 -4.0375998,-1.8618004 -2.95498,-2.93819 -1.8724,-4.01463 -1.8724,-4.01463 l 0.2868,-0.28519 c 0.7066,-0.70254 0.7732,-1.83047 0.1567,-2.6539 l -1.26094,-1.6844 c -0.76298,-1.01916 -2.2373,-1.15379 -3.11181,-0.28425 l -1.5696,1.56069 c -0.43362,0.43116 -0.7242,0.99007 -0.68896,1.61009 0.09015,1.58621 0.80782,4.99909 4.81247,8.9809904 4.24674,4.2226 8.2314398,4.3904 9.8609398,4.2385 0.5154,-0.048 0.9636,-0.3105 1.3248,-0.6697 l 1.4206,-1.4124 c 0.9589,-0.9535 0.6885,-2.5881 -0.5384,-3.255 l -1.9105,-1.0386 c -0.8056,-0.4379 -1.787,-0.3093 -2.4166,0.3168 z"
     fill="#1c274c"
     id="path824" />
</svg>
